<svg version="1.2" xmlns="http://www.w3.org/2000/svg" viewBox="0 0 340 324" width="315" height="300">
	<title>logo-svg</title>
	<style>
		.s0 { fill: #31b7a7 } 
	</style>
	<g id="Layer">
		<path id="Layer" class="s0" d="m166.5 24.4c26.6 0.2 28.3 0.3 33.8 2.5 7.6 3 16.4 11.2 20.2 18.8l3 5.8v40c0 38.8-0.1 40.2-2.3 48-3.1 10.7-6.6 16.7-12.9 22.5-5.6 5.1-13 8.5-21.8 10-2.7 0.5-13.2 1.1-23.3 1.5-25.2 0.9-31.4 3.1-36.3 12.7-4.2 8.2-4.9 15.3-4.9 51.6 0 32.3 0.1 34.5 2 38.2 1.1 2.1 3.6 5.1 5.7 6.7l3.6 2.8h30.7 30.7l3.7-2.9c7-5.3 7.6-7.9 7.6-34.9v-23.7h-3.2c-10.8-0.1-26.7-6.1-34.1-12.9-4.4-4-9.9-13.1-11.1-18.2-0.5-2.4-0.2-2.7 2.5-3.3 1.7-0.3 5.8-0.6 9-0.6 5.8 0 5.9 0 7.9 3.9 5.8 11.5 17.3 14 64.1 14.1 29.3 0 34.4-0.7 39.1-5.7 5.5-5.7 5.8-7.9 5.8-37 0-29.8-0.5-32.2-6.9-37.6-4.6-3.9-9-4.7-24.8-4.7h-14.3v-9-9h14.5c15.4 0 22.7 1.1 28.9 4.2 6.5 3.3 14.1 11.2 17.2 18.1l2.9 6.2v32 32l-2.8 5.9c-3.7 8.1-12.6 16.6-20.3 19.7-5.5 2.1-7.6 2.3-31.1 2.7l-25.2 0.4-0.3 25.6-0.3 25.7-2.9 6.3c-3.7 8-12.3 16.2-20.1 19.1-5.2 2-7.6 2.1-36.5 2.1-28.9 0-31.3-0.1-36.5-2.1-7.8-2.9-16.4-11.1-20.1-19.1l-2.9-6.3v-39.5c0-34.9 0.2-40.3 1.8-46 5.3-19.1 15.1-29.5 31.8-33.5 3.9-0.9 13.5-1.8 24.4-2.1 9.9-0.3 20.3-1 23.2-1.5 10.7-2.1 17-9.9 19.2-23.9 0.6-3.6 1.1-21.5 1.1-39.8 0-35.8-0.1-36.2-5.4-42-5-5.5-5.9-5.7-36.5-5.9-24.6-0.1-28.7 0.1-31 1.5-4.5 2.7-7.2 5.6-9.2 9.4-1.7 3.4-1.9 6.1-1.9 27.8v24h3.8c5.5 0 18.1 3.4 24.2 6.5 9.8 5 18.1 14.9 20.5 24.7l0.7 2.7-9.2 0.3-9.1 0.3-1.6-3.3c-3.5-7.4-11.8-11.5-26.4-13.2-11.3-1.3-64.4-1.3-69.1 0-5 1.4-9.7 5.5-11.9 10.5-1.7 3.6-1.9 6.9-1.9 31 0 24.6 0.2 27.4 2 31 4.7 9.8 7.3 10.8 27.8 11.3l16.2 0.4v9 9l-17.2-0.4c-21.7-0.6-26-2-35.6-11.4-4.5-4.4-5.4-6.1-6.1-7.2-0.6-1.1-1.1-1.6-1.5-2.3-0.3-0.5-0.3-1-1.3-3.6-1.6-4.3-1.8-8.1-1.8-36.3v-31.5l2.2-6.4c3.1-6.9 11.4-14.6 17.9-17.9 6.8-3.4 13.7-4.2 36.9-4.2h22.4l0.3-26.3 0.3-26.2 0.9-4.7c4.9-10.1 17.8-19.5 28.9-21.8 2.3-0.5 16.8-0.8 32.2-0.6z"/>
	</g>
</svg>